<svg width="22" height="22" viewBox="0 0 22 22" fill="none" xmlns="http://www.w3.org/2000/svg">
<path d="M21 11C21 16.5228 16.5228 21 11 21C5.47715 21 1 16.5228 1 11C1 5.47715 5.47715 1 11 1C16.5228 1 21 5.47715 21 11Z" stroke="#141B34" stroke-width="1.8"/>
<path d="M12.85 9.12779C12.85 9.62485 13.2529 10.0278 13.75 10.0278C14.2471 10.0278 14.65 9.62485 14.65 9.12779H12.85ZM8.9 12.8726C8.9 12.3756 8.49706 11.9726 8 11.9726C7.50294 11.9726 7.1 12.3756 7.1 12.8726H8.9ZM11.9 6C11.9 5.50294 11.4971 5.1 11 5.1C10.5029 5.1 10.1 5.50294 10.1 6L11.9 6ZM10.1 16C10.1 16.4971 10.5029 16.9 11 16.9C11.4971 16.9 11.9 16.4971 11.9 16H10.1ZM11 9.95618C10.0574 9.95618 9.58917 9.80465 9.37568 9.66173C9.23926 9.57041 9.15 9.45215 9.15 9.12779H7.35C7.35 9.91709 7.63574 10.663 8.37432 11.1575C9.03583 11.6003 9.94262 11.7562 11 11.7562V9.95618ZM9.15 9.12779C9.15 8.9266 9.25934 8.66846 9.58765 8.42773C9.91542 8.18738 10.4118 8.01133 11 8.01133V6.21133C10.0694 6.21133 9.19079 6.48667 8.52326 6.97615C7.85627 7.46522 7.35 8.21532 7.35 9.12779H9.15ZM11 8.01133C11.5882 8.01133 12.0846 8.18738 12.4124 8.42773C12.7407 8.66846 12.85 8.9266 12.85 9.12779H14.65C14.65 8.21532 14.1437 7.46522 13.4767 6.97615C12.8092 6.48667 11.9306 6.21133 11 6.21133V8.01133ZM13.1 12.8726C13.1 13.2515 12.9525 13.4736 12.66 13.6482C12.3129 13.8554 11.7473 13.9891 11 13.9891V15.7891C11.9095 15.7891 12.8439 15.6347 13.5826 15.1938C14.3759 14.7202 14.9 13.9341 14.9 12.8726H13.1ZM11 13.9891C10.326 13.9891 9.75613 13.8039 9.38074 13.5516C8.99972 13.2954 8.9 13.0384 8.9 12.8726H7.1C7.1 13.8206 7.67185 14.5717 8.37662 15.0454C9.08701 15.5229 10.0172 15.7891 11 15.7891V13.9891ZM11 11.7562C11.9498 11.7562 12.4835 11.9 12.7605 12.0795C12.9556 12.206 13.1 12.3943 13.1 12.8726H14.9C14.9 11.9107 14.5444 11.0907 13.7395 10.5691C13.0165 10.1004 12.0502 9.95618 11 9.95618V11.7562ZM11.9 7.11133L11.9 6L10.1 6L10.1 7.11133L11.9 7.11133ZM10.1 14.8891V16H11.9V14.8891H10.1Z" fill="#141B34"/>
</svg>
